<svg xmlns="http://www.w3.org/2000/svg" viewBox="0 0 512 512" role="img" aria-label="هلا">
  <defs>
    <radialGradient id="halaBg" cx="50%" cy="45%" r="62%">
      <stop offset="0%" stop-color="#4b3728"/>
      <stop offset="52%" stop-color="#271c18"/>
      <stop offset="100%" stop-color="#131019"/>
    </radialGradient>
    <linearGradient id="halaInk" x1="0" y1="140" x2="0" y2="372" gradientUnits="userSpaceOnUse">
      <stop offset="0%" stop-color="#f6c99b"/>
      <stop offset="55%" stop-color="#e2ac80"/>
      <stop offset="100%" stop-color="#c89a70"/>
    </linearGradient>
    <filter id="halaGlow" x="-20%" y="-20%" width="140%" height="140%">
      <feGaussianBlur stdDeviation="7" result="b"/>
      <feColorMatrix in="b" type="matrix"
        values="0 0 0 0 0.98  0 0 0 0 0.78  0 0 0 0 0.55  0 0 0 0.6 0" result="g"/>
      <feMerge><feMergeNode in="g"/><feMergeNode in="SourceGraphic"/></feMerge>
    </filter>
    <clipPath id="halaSquircle">
      <rect x="0" y="0" width="512" height="512" rx="114" ry="114"/>
    </clipPath>
  </defs>
  <g clip-path="url(#halaSquircle)">
    <rect x="0" y="0" width="512" height="512" fill="url(#halaBg)"/>
    <path d="M132.00,367.71 C128.32,365.86 128.15,362.27 131.68,360.95 C133.23,360.37 136.33,359.02 138.57,357.95 C140.80,356.88 143.50,356.00 144.57,355.99 C145.63,355.99 147.62,355.38 149.00,354.64 C160.72,348.31 163.97,346.67 167.14,345.50 C169.15,344.77 173.01,342.60 175.72,340.70 C178.43,338.79 182.19,336.44 184.07,335.48 C192.29,331.26 212.04,312.62 214.17,307.07 C214.72,305.65 214.90,302.86 214.59,300.86 C214.05,297.48 209.22,287.18 206.80,284.26 C206.22,283.55 205.01,281.68 204.12,280.09 C199.37,271.61 183.13,254.06 174.00,247.53 C171.07,245.44 162.59,241.00 161.52,241.00 C161.34,241.00 160.30,242.53 159.20,244.39 C156.74,248.56 151.63,250.54 146.80,249.21 C143.55,248.31 136.33,243.91 128.50,238.06 C126.30,236.42 122.86,234.17 120.86,233.07 C118.85,231.97 115.14,228.70 112.61,225.80 L108.00,220.53 L107.91,206.02 C107.74,180.03 107.79,179.68 112.02,177.49 C115.78,175.55 120.75,175.61 124.50,177.64 C126.15,178.54 128.85,179.91 130.50,180.70 C133.86,182.30 133.38,182.02 145.00,188.97 C149.68,191.76 155.30,195.37 157.50,196.99 C159.70,198.60 162.85,200.68 164.50,201.61 C173.77,206.84 199.65,231.00 205.61,239.99 C206.88,241.92 209.22,245.32 210.80,247.55 C213.66,251.57 218.52,261.07 221.40,268.26 C224.53,276.08 228.32,273.94 229.41,263.73 C229.78,260.30 230.95,252.55 232.02,246.50 C233.98,235.43 235.98,202.44 235.99,181.22 C236.00,168.80 236.87,165.61 242.28,158.22 C247.11,151.61 248.69,150.12 251.63,149.38 C255.15,148.49 256.72,150.66 257.41,157.36 C257.70,160.19 258.62,169.25 259.46,177.50 C260.30,185.75 261.44,199.93 261.99,209.00 C262.54,218.07 263.66,228.65 264.49,232.50 C265.33,236.35 266.47,245.80 267.03,253.50 C268.37,271.76 271.05,285.32 276.22,300.00 C278.77,307.25 280.92,310.95 285.38,315.75 C288.21,318.80 288.81,319.00 295.20,319.00 C300.67,319.00 302.39,318.61 304.00,317.00 C306.42,314.58 306.54,312.21 304.40,309.16 C302.61,306.60 302.80,303.93 305.48,294.00 C307.25,287.44 310.11,281.74 315.21,274.60 C318.71,269.71 318.69,269.03 315.00,265.50 C312.43,263.04 312.00,261.90 312.03,257.56 C312.05,254.26 312.92,250.76 314.52,247.50 C315.87,244.75 316.99,241.94 316.99,241.25 C317.00,239.45 323.62,232.40 327.62,229.92 C330.18,228.35 332.13,227.92 335.28,228.27 C340.01,228.78 349.20,232.49 353.24,235.51 C354.70,236.60 357.81,238.85 360.15,240.50 C369.76,247.28 391.78,269.58 397.67,278.50 C399.12,280.70 401.06,283.62 401.97,285.00 C405.36,290.13 408.47,300.41 408.47,306.50 C408.47,320.08 399.25,335.72 387.78,341.59 C382.37,344.35 379.82,344.55 374.36,342.63 C372.21,341.87 367.99,340.92 364.98,340.51 C361.97,340.10 358.28,339.14 356.80,338.38 C355.31,337.62 351.49,336.39 348.30,335.64 C345.11,334.90 340.71,333.32 338.51,332.14 C332.34,328.82 330.85,329.28 322.58,337.12 C318.45,341.03 312.69,345.83 309.78,347.78 C306.88,349.73 303.15,352.26 301.50,353.41 C299.03,355.13 297.08,355.49 290.50,355.42 C283.39,355.34 281.86,354.97 276.75,352.07 C266.45,346.23 258.08,334.30 255.38,321.60 C254.57,317.81 253.44,313.81 252.85,312.73 C252.27,311.64 250.97,305.30 249.95,298.63 C248.94,291.96 247.52,284.25 246.80,281.50 C245.01,274.63 242.84,274.83 241.38,282.00 C240.76,285.02 239.30,290.30 238.13,293.72 C236.96,297.14 236.00,300.51 236.00,301.20 C236.00,301.90 234.91,304.73 233.58,307.49 C232.25,310.24 229.51,316.02 227.51,320.32 C225.50,324.62 222.53,330.02 220.89,332.32 C219.26,334.62 216.88,338.07 215.59,340.00 C212.36,344.86 203.13,353.89 199.51,355.74 C197.85,356.59 195.43,358.12 194.12,359.14 C192.80,360.16 190.77,361.00 189.60,361.00 C188.43,361.00 185.87,361.86 183.92,362.90 C181.24,364.34 176.58,365.08 164.93,365.94 C156.45,366.56 146.49,367.50 142.81,368.03 C134.57,369.22 135.03,369.24 132.00,367.71 Z M391.05,313.43 C392.13,312.13 392.05,311.33 390.54,308.68 C385.82,300.40 369.41,287.59 364.27,288.18 C362.10,288.44 361.23,289.35 360.02,292.65 C359.18,294.93 357.71,297.67 356.75,298.73 C352.79,303.10 356.37,308.24 364.28,309.51 C366.60,309.89 369.57,310.87 370.87,311.70 C375.64,314.73 389.02,315.88 391.05,313.43 Z M344.06,295.78 C347.51,292.00 347.73,289.35 345.03,284.05 C342.64,279.37 338.58,276.00 335.33,276.00 C331.63,276.00 323.76,280.44 321.15,284.00 L318.80,287.19 L322.02,290.52 C323.79,292.35 326.39,294.13 327.79,294.48 C329.19,294.84 331.45,296.00 332.81,297.06 C336.57,300.02 340.60,299.56 344.06,295.78 Z" fill="url(#halaInk)" fill-rule="evenodd" filter="url(#halaGlow)"/>
  </g>
</svg>
